# xmcd
#
# Track frame offsets:
#	150
#	21132
#	35842
#	49425
#	67707
#	87500
#	95347
#	111435
#	132285
#	146392
#	158240
#
# Disc length: 2372 seconds
#
# Revision: 4
# Processed by: cddbd v1.5.2PL0 Copyright (c) Steve Scherf et al.
# Submitted via: EZCDAudioConverter 7.1.2.1
#
DISCID=9609420b
DTITLE=Rufus and Chaka Khan - Rags To Rufus
DYEAR=1974
DGENRE=R&B - Funk
TTITLE0=You Got The Love
TTITLE1=I Got The Right Street (But The Wrong Direction)
TTITLE2=Walkin' In The Sun
TTITLE3=Rags To Rufus (Instrumental)
TTITLE4=Swing Down Chariot
TTITLE5=Sideways (Instrumental)
TTITLE6=Ain't Nothin' But A Maybe
TTITLE7=Tell Me Something Good
TTITLE8=Look Through My Eyes
TTITLE9=In Love We Grow
TTITLE10=Smokin' Room
EXTD=
EXTT0=
EXTT1=
EXTT2=
EXTT3=
EXTT4=
EXTT5=
EXTT6=
EXTT7=
EXTT8=
EXTT9=
EXTT10=
PLAYORDER=
